<svg width="66" height="19" viewBox="0 0 66 19" fill="none" xmlns="http://www.w3.org/2000/svg">
<g clip-path="url(#clip0_411_560)">
<g clip-path="url(#clip1_411_560)">
<g clip-path="url(#clip2_411_560)">
<path d="M18.4423 7.96389C18.2204 7.65783 17.9291 7.40873 17.5924 7.23696C17.2557 7.06515 16.8831 6.97559 16.505 6.97559H7.0812C6.70329 6.97567 6.33076 7.06524 5.99412 7.23705C5.65747 7.40882 5.36633 7.65792 5.1445 7.96389L0.459679 14.4251C-0.687131 16.0071 0.44355 18.2223 2.39673 18.2223H21.1895C23.1434 18.2223 24.2736 16.0071 23.1266 14.4251L18.4423 7.96389Z" fill="url(#paint0_linear_411_560)"/>
<path d="M18.4423 0.988282C18.2204 0.682241 17.9291 0.433128 17.5924 0.261345C17.2557 0.0895626 16.8831 1.84952e-06 16.505 0H7.0812C6.70329 6.52795e-05 6.33076 0.0896569 5.99412 0.261437C5.65747 0.433219 5.36633 0.682297 5.1445 0.988282L0.459679 7.44951C-0.687131 9.03144 0.44355 11.2465 2.39673 11.2465H21.1895C23.1434 11.2465 24.2736 9.03144 23.1266 7.44951L18.4423 0.988282Z" fill="url(#paint1_linear_411_560)"/>
<path d="M31.7429 3.79785L27.8125 14.5475H29.5788L30.4956 11.952H34.85L35.7665 14.5475H37.5481L33.6167 3.79785H31.7429ZM30.9723 10.601L32.6731 5.78812L34.3728 10.601H30.9723Z" fill="#0F0F0F"/>
<path d="M44.7338 7.2687C44.1707 6.9209 43.5206 6.74689 42.7835 6.74668C42.1283 6.74668 41.5857 6.8823 41.1557 7.15354C40.7258 7.42483 40.388 7.73963 40.1423 8.09798V3.49121H38.4531V14.5474H40.1423V13.4111C40.4084 13.8207 40.7667 14.1433 41.2172 14.3787C41.6677 14.6142 42.1898 14.732 42.7835 14.732C43.5206 14.732 44.1707 14.5604 44.7338 14.2175C45.2969 13.8745 45.7393 13.401 46.062 12.797C46.3847 12.1932 46.5458 11.5124 46.5458 10.7548C46.5458 9.98691 46.3847 9.301 46.062 8.69708C45.7393 8.0932 45.2969 7.61706 44.7338 7.2687ZM44.527 12.052C44.3361 12.4164 44.0488 12.7216 43.6972 12.9347C43.344 13.1497 42.937 13.2573 42.4764 13.2573C42.0158 13.2573 41.6089 13.1497 41.2556 12.9347C40.9039 12.7214 40.6172 12.4161 40.4263 12.0517C40.2267 11.6782 40.1268 11.2406 40.1268 10.7388C40.1268 10.237 40.2267 9.79709 40.4263 9.41896C40.626 9.04027 40.9024 8.74598 41.2556 8.536C41.6088 8.32601 42.0157 8.22107 42.4764 8.2212C42.937 8.2212 43.344 8.3261 43.6972 8.536C44.0501 8.74585 44.3271 9.0426 44.527 9.4262C44.7265 9.81014 44.8264 10.2529 44.8264 10.7546C44.826 11.2458 44.726 11.6783 44.527 12.052Z" fill="#0F0F0F"/>
<path d="M53.26 7.24622C52.6607 6.91367 51.9775 6.74729 51.2102 6.74707C50.4627 6.74707 49.7846 6.91345 49.1754 7.24622C48.5753 7.57058 48.0764 8.054 47.733 8.64349C47.3798 9.24246 47.2031 9.94129 47.2031 10.74C47.2031 11.5285 47.3798 12.2246 47.733 12.8285C48.0859 13.4324 48.5645 13.9008 49.1681 14.2335C49.7721 14.5661 50.4528 14.7325 51.2106 14.7327C51.968 14.7329 52.6491 14.5665 53.2527 14.2335C53.8567 13.901 54.3353 13.4327 54.6882 12.8285C55.0414 12.2244 55.2181 11.5283 55.2181 10.74C55.2181 9.94164 55.0414 9.24281 54.6882 8.64349C54.3349 8.04422 53.8588 7.57847 53.26 7.24622ZM53.1605 12.1449C52.9559 12.5187 52.6823 12.8002 52.3389 12.9893C51.9956 13.1784 51.619 13.2732 51.2097 13.2735C50.8 13.2735 50.4239 13.1788 50.081 12.9893C49.7381 12.7999 49.4645 12.5184 49.2599 12.1449C49.0548 11.7713 48.9527 11.3029 48.9535 10.7397C48.9544 10.1766 49.0591 9.70822 49.2685 9.3347C49.4778 8.96122 49.7544 8.67968 50.0974 8.49012C50.4403 8.30056 50.8168 8.20591 51.2261 8.20613C51.6156 8.20371 51.9986 8.30151 52.3389 8.49012C52.6819 8.67968 52.9559 8.96122 53.1605 9.3347C53.3656 9.70822 53.4677 10.1766 53.4672 10.7397C53.4672 11.3028 53.3651 11.7712 53.1605 12.1449Z" fill="#0F0F0F"/>
<path d="M63.0059 6.93098H60.994L57.9076 10.164V3.49121H56.2188V14.5474H57.9076V12.0442L58.7804 11.1688L61.3933 14.5474H63.4819L59.8376 10.1086L63.0059 6.93098Z" fill="#0F0F0F"/>
<path d="M65.9392 6.93066H64.25V14.5471H65.9392V6.93066Z" fill="#0F0F0F"/>
<path d="M65.9996 3.75195H64.2031V5.57932H65.9996V3.75195Z" fill="#0F0F0F"/>
</g>
</g>
</g>
<defs>
<linearGradient id="paint0_linear_411_560" x1="11.7931" y1="18.2223" x2="11.7931" y2="6.97559" gradientUnits="userSpaceOnUse">
<stop stop-color="#FF87EA"/>
<stop offset="1" stop-color="#9333EA"/>
</linearGradient>
<linearGradient id="paint1_linear_411_560" x1="11.7931" y1="11.2465" x2="11.7931" y2="0" gradientUnits="userSpaceOnUse">
<stop stop-color="#FF87EA"/>
<stop offset="1" stop-color="#9333EA"/>
</linearGradient>
<clipPath id="clip0_411_560">
<rect width="66" height="18.2237" rx="4.0497" fill="white"/>
</clipPath>
<clipPath id="clip1_411_560">
<rect width="66" height="18.2237" fill="white"/>
</clipPath>
<clipPath id="clip2_411_560">
<rect width="66.0015" height="18.2237" fill="white"/>
</clipPath>
</defs>
</svg>
